<svg xmlns="http://www.w3.org/2000/svg" width="40.324" height="40" viewBox="0 0 40.324 40">
  <g id="Social_icons_black" transform="translate(-0.088 -0.18)">
    <g id="Github" transform="translate(0.088 0.18)">
      <path id="Fill-51" d="M20.162,0A20.337,20.337,0,0,0,0,20.506,20.483,20.483,0,0,0,13.788,39.965c1.008.19,1.378-.445,1.378-.986,0-.489-.019-2.1-.027-3.818-5.609,1.24-6.793-2.42-6.793-2.42a5.406,5.406,0,0,0-2.239-3c-1.829-1.273.138-1.247.138-1.247a4.245,4.245,0,0,1,3.091,2.113c1.8,3.135,4.717,2.229,5.867,1.7a4.4,4.4,0,0,1,1.28-2.742C12,29.051,7.3,27.293,7.3,19.435a8.012,8.012,0,0,1,2.077-5.5,7.485,7.485,0,0,1,.2-5.427s1.693-.551,5.546,2.1a18.815,18.815,0,0,1,10.1,0c3.848-2.653,5.539-2.1,5.539-2.1a7.476,7.476,0,0,1,.2,5.427,8,8,0,0,1,2.075,5.5c0,7.876-4.717,9.61-9.206,10.118a4.947,4.947,0,0,1,1.368,3.8c0,2.743-.023,4.952-.023,5.628,0,.546.363,1.185,1.385.984A20.481,20.481,0,0,0,40.324,20.506,20.336,20.336,0,0,0,20.162,0" fill="#fff"/>
      <path id="Fill-52" d="M.524.337C.481.437.328.466.189.4S-.033.2.013.1s.2-.13.337-.062.223.2.174.3" transform="translate(6.887 29.105)" fill="#fff"/>
      <path id="Fill-53" d="M.514.552C.421.64.239.6.115.46A.308.308,0,0,1,.058.046c.1-.088.273-.047.4.092S.612.463.514.552" transform="translate(7.926 29.814)" fill="#fff"/>
      <path id="Fill-54" d="M.527.681C.407.765.211.686.09.509S-.03.12.092.035.407.026.53.2a.356.356,0,0,1,0,.479" transform="translate(8.709 30.866)" fill="#fff"/>
      <path id="Fill-55" d="M.671.657C.564.777.336.745.168.581A.387.387,0,0,1,.057.072C.166-.048.4-.014.564.148s.222.39.107.509" transform="translate(9.651 32.249)" fill="#fff"/>
      <path id="Fill-56" d="M.819.435C.771.591.551.661.33.6S-.037.344.008.187.275-.044.5.027s.366.249.32.408" transform="translate(11.003 33.115)" fill="#fff"/>
      <path id="Fill-57" d="M.841.29c.006.164-.182.3-.415.3S0,.466,0,.3.184,0,.418,0,.841.127.841.29" transform="translate(12.631 33.378)" fill="#fff"/>
      <path id="Fill-58" d="M.834.228C.862.388.7.552.469.6S.032.539,0,.38.14.052.366.009.8.065.834.228" transform="translate(14.174 33.183)" fill="#fff"/>
    </g>
  </g>
</svg>
